<svg xmlns="http://www.w3.org/2000/svg" height="48" viewBox="0 0 207 48">
    <path fill="#2196f3" d="M0 0h48v48H0z"/>
    <path fill="#fff" d="M13.4 36V12H24c2.1 0 3.8.2 4.9.6s2 1.2 2.7 2.3 1 2.3 1 3.6c0 1.7-.6 3.1-1.7 4.3s-2.8 1.9-5.1 2.2c.8.4 1.5.8 1.9 1.2.9.9 1.8 1.9 2.6 3.2l4.2 6.5h-4l-3.2-5-2.3-3.3c-.6-.8-1.1-1.3-1.6-1.6s-1-.5-1.4-.6-.9-.1-1.8-.1h-3.7V36h-3.1zm3.2-13.4h6.8c1.5 0 2.6-.2 3.4-.5s1.4-.8 1.9-1.4c.4-.7.6-1.4.6-2.2 0-1.1-.4-2.1-1.2-2.8s-2.1-1.1-3.9-1.1h-7.6v8z"/>
    <circle fill="#3832a8" cx="77" cy="24" r="24"/>
    <path fill="#fff" d="M66.4 36V12H77c2.1 0 3.8.2 4.9.6s2 1.2 2.7 2.3 1 2.3 1 3.6c0 1.7-.6 3.1-1.7 4.3s-2.8 1.9-5.1 2.2c.8.4 1.5.8 1.9 1.2.9.9 1.8 1.9 2.6 3.2l4.2 6.5h-4l-3.2-5-2.3-3.3c-.6-.8-1.1-1.3-1.6-1.6s-1-.5-1.4-.6-.9-.1-1.8-.1h-3.7V36h-3.1zm3.2-13.4h6.8c1.5 0 2.6-.2 3.4-.5s1.4-.8 1.9-1.4c.4-.7.6-1.4.6-2.2 0-1.1-.4-2.1-1.2-2.8s-2.1-1.1-3.9-1.1h-7.6v8z"/>
    <path fill="#3832a8" d="M116 0h28c5.5 0 10 4.5 10 10v28c0 5.5-4.5 10-10 10h-28c-5.5 0-10-4.5-10-10V10c0-5.5 4.5-10 10-10z"/>
    <path fill="#fff" d="M119.4 36V12H130c2.1 0 3.8.2 4.9.6s2 1.2 2.7 2.3 1 2.3 1 3.6c0 1.7-.6 3.1-1.7 4.3s-2.8 1.9-5.1 2.2c.8.4 1.5.8 1.9 1.2.9.9 1.8 1.9 2.6 3.2l4.2 6.5h-4l-3.2-5-2.3-3.3c-.6-.8-1.1-1.3-1.6-1.6s-1-.5-1.4-.6-.9-.1-1.8-.1h-3.7V36h-3.1zm3.2-13.4h6.8c1.5 0 2.6-.2 3.4-.5s1.4-.8 1.9-1.4c.4-.7.6-1.4.6-2.2 0-1.1-.4-2.1-1.2-2.8s-2.1-1.1-3.9-1.1h-7.6v8z"/>
    <path fill="#f44336" d="M159 0h48v48h-48z"/>
    <path fill="#fff" d="M193.4 36h-2.9c0-4.2-3.4-7.5-7.6-7.5s-7.6 3.4-7.6 7.5h-2.9c0-4 2.2-7.5 5.5-9.2-2-1.5-3.3-3.9-3.3-6.5 0-4.5 3.8-8.2 8.2-8.2s8.2 3.7 8.2 8.2c0 2.7-1.3 5-3.3 6.5 3.5 1.7 5.7 5.2 5.7 9.2zm-10.5-21.2a5.34 5.34 0 0 0-5.3 5.3c0 2.9 2.4 5.4 5.3 5.4a5.34 5.34 0 0 0 5.3-5.3c0-2.9-2.4-5.4-5.3-5.4z"/>
</svg>
